<?xml version="1.0" encoding="utf-8"?>
<!-- Generator: Adobe Illustrator 27.5.0, SVG Export Plug-In . SVG Version: 6.00 Build 0)  -->
<svg version="1.1" id="Capa_1" xmlns="http://www.w3.org/2000/svg" xmlns:xlink="http://www.w3.org/1999/xlink" x="0px" y="0px"
	 viewBox="0 0 1894 2377" style="enable-background:new 0 0 1894 2377;" xml:space="preserve">
<g>
	<path style="fill:#C6C6C6;" d="M1516.519,1020.766c-0.011-96.234-15.644-193.667-43.445-283.088
		c-13.054-41.933-28.802-82.074-46.914-119.538c28.363-24.689,46.315-61.029,46.315-101.584
		c0-74.375-60.293-134.668-134.668-134.668c-74.375,0-134.668,60.293-134.668,134.668c0,74.375,60.293,134.668,134.668,134.668
		c17.394,0,34-3.334,49.263-9.338c16.273,34.168,30.595,70.896,42.532,109.313c26.469,85.072,41.402,178.281,41.391,269.568
		c0.005,68.111-8.3,135.138-26.062,196.971c-13.312,46.361-31.912,89.771-56.233,128.729c-9.229-24.776-21.957-49.548-40.02-72.274
		c-15.171-19.075-34.112-36.581-57.418-50.999c-23.299-14.432-50.898-25.751-83.199-32.899c-22.13-4.901-44.204-7.279-65.688-7.28
		c-26.607,0.003-52.316,3.641-76.124,10.748c-35.669,10.663-67.262,29.166-90.328,55.418c-11.51,13.111-20.815,28.162-27.176,44.822
		c-6.371,16.654-9.769,34.882-9.761,54.129c0,9.203,0.768,18.644,2.334,28.28l-0.002-0.006
		c3.924,24.267,13.084,46.533,26.188,65.918c19.674,29.118,47.993,51.75,80.927,67.086c32.968,15.339,70.669,23.489,109.998,23.498
		c41.469-0.001,84.804-9.103,126.129-28.794c28.586-13.613,56.125-32.454,81.359-56.595c1.033,7.677,1.917,15.136,2.706,22.252
		c1.489,13.422,2.662,25.641,4.145,36.405c10.121,73.245,14.757,139.091,14.757,198.126c0.004,96.394-12.365,174.583-33.183,237.385
		c-15.617,47.115-35.951,85.589-59.484,116.93c-35.324,46.981-77.829,78.149-123.863,97.993
		c-46.011,19.802-95.677,28.078-144.327,28.074c-38.981,0.005-78.068-5.431-114.518-18.572
		c-27.356-9.863-53.257-24.012-76.943-43.637c-35.484-29.455-66.283-71.307-88.617-131.098
		c-22.293-59.755-35.852-137.484-35.844-237.277c0-108.44,0-233.693,0-331.837c0-49.072,0-91.366,0-121.393c0-8.5,0-15.977,0-22.385
		c6.971-6.251,11.382-15.299,11.382-25.399v-85.432c16.79-2.514,32.728-6.334,47.752-11.456
		c25.208-8.577,47.842-20.723,67.727-35.626c34.862-26.105,61.084-60.343,80.724-98.212c29.452-56.912,44.82-122.271,53.384-187.103
		c8.497-64.83,9.98-129.299,9.99-184.032c0-10.119-4.427-19.181-11.42-25.433c-0.277-105.285-2.357-197.394-10.774-267.355
		c-2.284-18.909-5.038-36.233-8.42-51.894c-5.124-23.502-11.44-43.24-20.724-59.442c-4.676-8.081-10.182-15.349-17.124-21.361
		c-5.528-4.809-12.148-8.657-19.375-11.043c-2.173-13.175-12.014-24.472-25.762-27.751l-71.688-17.1
		c-18.267-4.358-36.778,7.023-41.135,25.29l-2.981,12.496c-4.357,18.267,7.024,36.778,25.291,41.136l71.688,17.099
		c11.282,2.691,22.645-0.633,30.721-7.862c0.501,0.19,1.025,0.434,1.654,0.823c2.001,1.222,5.158,4.175,8.596,9.873
		c6.086,9.874,12.296,27.465,17.035,50.745c7.24,34.975,11.743,82.655,14.279,139.065c2.25,49.65,3.043,106.152,3.201,167.347
		c-6.951,6.251-11.349,15.286-11.349,25.37h0c0.005,46.522-1.144,99.278-6.659,151.803c-4.126,39.383-10.723,78.61-20.895,114.769
		c-7.619,27.123-17.244,52.497-29.129,74.99c-8.912,16.878-19.078,32.131-30.593,45.471c-17.314,20.016-37.487,35.777-62.112,46.922
		c-24.641,11.1-54.031,17.678-90.301,17.702c-28.227-0.008-52.294-4.131-73.179-11.297c-18.281-6.289-34.19-14.911-48.456-25.63
		c-24.902-18.73-44.968-44.189-61.108-75.113c-24.223-46.282-38.922-104.581-47.021-164.622
		c-8.164-60.044-9.935-121.677-9.925-174.994c0-10.084-4.398-19.119-11.349-25.37c0.263-104.673,2.436-195.752,10.453-261.964
		c2.153-17.856,4.724-33.874,7.72-47.735c4.444-20.782,10.066-36.735,15.653-46.295c2.76-4.799,5.422-7.929,7.453-9.666
		c1.454-1.226,2.485-1.811,3.415-2.166c8.074,7.211,19.423,10.524,30.691,7.837l71.687-17.099
		c18.268-4.358,29.648-22.868,25.291-41.136l-2.981-12.496c-4.358-18.267-22.868-29.648-41.136-25.29l-71.688,17.1
		c-13.743,3.279-23.582,14.568-25.76,27.739c-4.195,1.391-8.202,3.263-11.866,5.566c-9.894,6.232-17.339,14.96-23.349,24.845
		c-10.447,17.395-17.236,39.019-22.692,65.149c-8.055,39.141-12.542,88.519-15.172,146.205
		c-2.296,50.729-3.088,107.811-3.247,169.348c-6.989,6.252-11.413,15.312-11.413,25.428c0.004,47.743,1.334,102.838,7.475,159.076
		c4.617,42.188,11.927,85.042,23.647,126.111c8.799,30.799,20.082,60.616,34.783,88.327c11.026,20.775,23.991,40.37,39.303,58.128
		c22.928,26.63,51.313,49.088,85.314,64.518c28.784,13.107,61.428,21.027,97.569,23.149v82.553c0,10.1,4.411,19.148,11.382,25.399
		c0,74.331,0,297.607,0,475.615c0.006,92.335,11.095,168.235,30.885,230.482c14.839,46.67,34.617,85.655,58.226,117.757
		c35.379,48.189,79.44,80.597,126.571,100.426c47.155,19.88,97.207,27.438,145.765,27.445c47.791-0.004,97.196-7.194,144.637-24.718
		c35.566-13.136,70.004-32.121,101.487-58.094c47.259-38.94,87.633-93.578,115.809-166.426
		c28.215-72.876,44.444-163.881,44.45-276.671c0-61.417-4.818-129.317-15.185-204.358c-1.147-8.277-2.21-18.765-3.497-30.657
		c-2.071-19.048-4.757-41.743-9.688-65.932c38.339-51.196,65.921-110.066,84.008-173.053
		C1507.806,1163.705,1516.514,1092.562,1516.519,1020.766z M1264.974,1463.015c-35.062,16.711-71.724,24.367-106.544,24.366
		c-44.027,0.03-84.965-12.329-115.544-33.29c-15.312-10.471-28.054-23.032-37.65-37.245c-9.595-14.232-16.107-30.092-18.979-47.729
		l-0.001-0.006c-1.189-7.324-1.745-14.311-1.745-20.98c0.023-18.591,4.25-34.667,11.779-48.927
		c5.663-10.682,13.253-20.351,22.631-28.96c14.048-12.903,32.179-23.376,53.238-30.581c21.045-7.21,44.965-11.128,70.215-11.124
		c18.123,0,36.926,2.011,55.842,6.202c42.347,9.429,72.604,26.257,95.48,47.065c17.136,15.638,30.155,33.703,40.274,53.167
		c9.52,18.298,16.391,37.842,21.469,57.332C1328.227,1424.446,1297.279,1447.608,1264.974,1463.015z"/>
	<path style="fill:#352E35;" d="M595.052,207.631l-2.981-12.496c-4.358-18.267-22.868-29.648-41.136-25.29l-71.688,17.1
		c-13.743,3.279-23.582,14.568-25.76,27.739c-0.717,4.335-0.609,8.872,0.47,13.396l2.98,12.496c1.669,7,5.428,12.974,10.444,17.453
		c8.074,7.211,19.423,10.524,30.691,7.837l71.687-17.099C588.029,244.409,599.409,225.898,595.052,207.631z"/>
	<path style="fill:#4A404B;" d="M492.604,214.845c2.55,10.688,13.38,17.347,24.068,14.798l45.321-10.811
		c10.688-2.549,17.347-13.38,14.798-24.068l-1.196-5.012c-2.549-10.688-13.38-17.347-24.068-14.798l-45.32,10.811
		c-10.688,2.549-17.347,13.38-14.798,24.068L492.604,214.845z"/>
	<path style="fill:#352E35;" d="M893.867,214.696c-2.173-13.175-12.014-24.472-25.762-27.751l-71.688-17.1
		c-18.267-4.358-36.778,7.023-41.135,25.29l-2.981,12.496c-4.357,18.267,7.024,36.778,25.291,41.136l71.688,17.099
		c11.282,2.691,22.645-0.633,30.721-7.862c5.001-4.476,8.748-10.442,10.414-17.428l2.981-12.496
		C894.474,223.56,894.582,219.027,893.867,214.696z"/>
	<path style="fill:#4A404B;" d="M841.148,185.765l-45.321-10.811c-10.688-2.549-21.519,4.109-24.068,14.798l-1.195,5.012
		c-2.55,10.688,4.11,21.519,14.798,24.068l45.32,10.811c10.688,2.549,21.519-4.109,24.068-14.798l1.196-5.012
		C858.495,199.145,851.836,188.314,841.148,185.765z"/>
	<path style="fill:#352E35;" d="M710.747,1278.485c6.971-6.251,11.382-15.299,11.382-25.399v-85.432
		c16.79-2.514,32.728-6.334,47.752-11.456c25.208-8.577,47.842-20.723,67.727-35.626c34.862-26.105,61.084-60.343,80.724-98.212
		c29.452-56.912,44.82-122.271,53.384-187.103c8.497-64.83,9.98-129.299,9.99-184.032c0-10.119-4.427-19.181-11.42-25.433
		c-6.039-5.4-13.985-8.711-22.724-8.711c-8.773,0-16.748,3.337-22.795,8.775c-6.951,6.251-11.349,15.286-11.349,25.37h0
		c0.005,46.522-1.144,99.278-6.659,151.803c-4.126,39.383-10.723,78.61-20.895,114.769c-7.619,27.123-17.244,52.497-29.129,74.99
		c-8.912,16.878-19.078,32.131-30.593,45.471c-17.314,20.016-37.487,35.777-62.112,46.922c-24.641,11.1-54.031,17.678-90.301,17.702
		c-28.227-0.008-52.294-4.131-73.179-11.297c-18.281-6.289-34.19-14.911-48.456-25.63c-24.902-18.73-44.968-44.189-61.108-75.113
		c-24.223-46.282-38.922-104.581-47.021-164.622c-8.164-60.044-9.935-121.677-9.925-174.994c0-10.084-4.398-19.119-11.349-25.37
		c-6.047-5.438-14.022-8.775-22.795-8.775c-8.742,0-16.691,3.313-22.731,8.716c-6.989,6.252-11.413,15.312-11.413,25.428
		c0.004,47.743,1.334,102.838,7.475,159.076c4.617,42.188,11.927,85.042,23.647,126.111c8.799,30.799,20.082,60.616,34.783,88.327
		c11.026,20.775,23.991,40.37,39.303,58.128c22.928,26.63,51.313,49.088,85.314,64.518c28.784,13.107,61.428,21.027,97.569,23.149
		v82.553c0,10.1,4.411,19.148,11.382,25.399c6.044,5.421,14.005,8.745,22.763,8.745
		C696.742,1287.23,704.703,1283.905,710.747,1278.485z"/>
	<path style="fill:#352E35;" d="M1337.807,381.888c-74.375,0-134.668,60.293-134.668,134.668
		c0,74.375,60.293,134.668,134.668,134.668c17.394,0,34-3.334,49.263-9.338c14.412-5.67,27.604-13.746,39.09-23.745
		c28.363-24.689,46.315-61.029,46.315-101.584C1472.475,442.181,1412.182,381.888,1337.807,381.888z"/>
	
		<ellipse transform="matrix(0.3404 -0.9403 0.9403 0.3404 396.6809 1598.6095)" style="fill:#B3B3B3;" cx="1337.807" cy="516.556" rx="101.2" ry="101.199"/>
	<circle style="fill:#7A7A7A;" cx="1337.807" cy="516.556" r="48.461"/>
	<path style="fill:#D9D9D9;" d="M1431.051,510.768c-0.104-5.954-0.898-11.961-2.253-17.758
		c-2.799-11.956-8.246-23.163-15.642-32.939c-7.084-9.363-15.735-17.686-25.496-24.238c-4.626-3.105-9.625-6.021-14.738-8.232
		c-1.226-0.529-10.861-4.84-10.899-1.26c-0.037,3.538,6.646,6.511,9.215,8.163c4.534,2.915,8.895,5.986,13.131,9.32
		c8.018,6.308,15.353,13.6,21.154,22.02c6.012,8.725,10.433,18.486,12.906,28.795c1.269,5.294,1.948,10.682,1.986,16.127
		c0.02,2.743-0.096,5.497-0.403,8.224c-0.306,2.72-1.103,5.403-1.09,8.144c0.023,4.761,7.314,7.371,9.528,2.58
		C1431.043,524.107,1431.158,516.878,1431.051,510.768z"/>
	<path style="fill:#D9D9D9;" d="M1422.524,541.49l-1.252-0.967c-0.965-0.559-2.006-0.842-3.122-0.844
		c-0.851-0.033-1.646,0.145-2.384,0.532c-0.767,0.25-1.431,0.676-1.991,1.28c-0.604,0.56-1.029,1.223-1.279,1.991
		c-0.387,0.737-0.565,1.532-0.533,2.384c0.073,0.548,0.147,1.097,0.221,1.644c0.294,1.048,0.824,1.958,1.591,2.73l1.252,0.968
		c0.965,0.56,2.006,0.841,3.123,0.844c0.851,0.032,1.646-0.145,2.384-0.532c0.767-0.25,1.43-0.676,1.991-1.28
		c0.603-0.559,1.029-1.224,1.279-1.991c0.388-0.737,0.566-1.532,0.533-2.383c-0.074-0.548-0.146-1.096-0.22-1.645
		C1423.821,543.171,1423.291,542.261,1422.524,541.49z"/>
</g>
</svg>
